# xmcd CD database file
#
# Track frame offsets:
#	150
#	14580
#	31076
#	47085
#	65610
#	81525
#	100036
#	102793
#	117574
#	133644
#	148163
#	159697
#	176444
#
# Disc length: 2588 seconds
#
# Revision: 1
# Processed by: cddbd v1.5.2PL0 Copyright (c) Steve Scherf et al.
# Submitted via: jetAudio 7
#
DISCID=b40a1a0d
DTITLE=Cassie - Cassie
DYEAR=1900
DGENRE=blues
TTITLE0=Me and You
TTITLE1=Long Way To Go
TTITLE2=About Time
TTITLE3=Kiss Me
TTITLE4=Call You Out
TTITLE5=Just One Nite
TTITLE6=Hoep Your're Behaving (Interlude)
TTITLE7=Not With You
TTITLE8=Ditto
TTITLE9=What You do
TTITLE10=Miss Your Touch
TTITLE11=When Your Body is talking
TTITLE12=Can't Do It Without You
EXTD=
EXTT0=
EXTT1=
EXTT2=
EXTT3=
EXTT4=
EXTT5=
EXTT6=
EXTT7=
EXTT8=
EXTT9=
EXTT10=
EXTT11=
EXTT12=
PLAYORDER=
